<svg width="100" height="100" xmlns="http://www.w3.org/2000/svg">
 <!-- Created with Method Draw - http://github.com/duopixel/Method-Draw/ -->

 <g>
  <title>background</title>
  <rect fill="none" id="canvas_background" height="102" width="102" y="-1" x="-1"/>
  <g display="none" overflow="visible" y="0" x="0" height="100%" width="100%" id="canvasGrid">
   <rect fill="url(#gridpattern)" stroke-width="0" y="0" x="0" height="100%" width="100%"/>
  </g>
 </g>
 <g>
  <title>Layer 1</title>
  <g stroke="null" id="svg_7">
   <g stroke="null" transform="matrix(1.96667 0 0 1.96667 -71.1891 -53.0343)" id="svg_4" fill-rule="evenodd" fill="darkred">
    <path stroke="null" id="svg_5" d="m41.309544,47.995338c0,3.638004 1.972,6.939995 5.077999,9.179996c0.228001,0.169003 0.350002,0.361004 0.350002,0.685001c0,0.111 -0.018997,0.230999 -0.056999,0.389999c-0.260002,1.062004 -0.544998,2.278 -0.586002,2.440002c-0.040997,0.163994 -0.105999,0.271996 -0.097996,0.390999c-0.008003,0.269997 0.209999,0.488998 0.487995,0.488998c0.098003,0 0.184002,-0.040001 0.293003,-0.098l3.223,-1.855003c0.204002,-0.124001 0.432999,-0.187996 0.587997,-0.187996c0.154007,0 0.412003,0.048004 0.584007,0.090004c1.493992,0.381996 3.107002,0.619995 4.784996,0.585999c0.262997,0.034996 0.529999,0.027992 0.780994,0a9.98,9.98 0 0 1 -0.487995,-2.930004c0.011997,-6.171001 5.990005,-11.143002 13.379002,-11.132999c0.252998,-0.010002 0.516998,-0.001999 0.780998,0c-1.103004,-5.805 -7.155994,-10.253998 -14.452999,-10.253998c-8.092999,0 -14.648003,5.452003 -14.648003,12.207001zm9.667007,-1.953003a1.953,1.953 0 1 1 0,-3.904999a1.953,1.953 0 0 1 0,3.904999m18.652996,0.976997c6.740997,0 12.207001,4.542 12.207001,10.156002c0,3.047001 -1.645004,5.799999 -4.200005,7.616993c-0.224998,0.190002 -0.330002,0.405998 -0.330002,0.608002c0,0.200996 0.014008,0.261993 0.038002,0.368996c0.168999,0.752007 0.496002,1.943001 0.525002,2.040001c0.028,0.097 0.064995,0.188004 0.059998,0.304001a0.393,0.393 0 0 1 -0.389999,0.389999c-0.099998,0 -0.172005,-0.031998 -0.292999,-0.097l-2.637001,-1.563004c-0.184998,-0.097992 -0.399002,-0.217995 -0.643997,-0.169998c-0.246002,0.048004 -0.238007,0.047005 -0.332001,0.072006a15.154,15.154 0 0 1 -4.003998,0.585999c-6.742001,-0.020004 -12.207996,-4.560997 -12.207996,-10.155994c0,-5.614002 5.464996,-10.156002 12.206989,-10.156002l0.001007,0zm-4.150002,5.273006c-0.814003,0 -1.513996,0.699993 -1.513996,1.514996c0,0.910995 0.699993,1.610001 1.514996,1.610001c0.909996,0 1.610001,-0.699005 1.610001,-1.610001c0,-0.815002 -0.700005,-1.514996 -1.610001,-1.514996l-0.000999,0zm8.106003,0c-0.815002,0 -1.515007,0.699993 -1.515007,1.514996c0,0.910995 0.700005,1.610001 1.515007,1.610001c0.910995,0 1.609993,-0.699005 1.609993,-1.610001c0,-0.815002 -0.698997,-1.514996 -1.609993,-1.514996zm-12.842999,-10.155998a1.953,1.953 0 1 1 0,3.906994a1.953,1.953 0 0 1 0,-3.906994z"/>
    <path stroke="null" id="svg_6" d="m36.621548,27.390333l49.999996,0l0,49.999994l-49.999996,0l0,-49.999994z" fill="none"/>
   </g>
  </g>
 </g>
</svg>