<svg width="50" height="50" xmlns="http://www.w3.org/2000/svg"><g fill="darkorange" fill-rule="evenodd"><path d="M4.688 20.605c0 3.638 1.972 6.94 5.078 9.18.228.169.35.361.35.685 0 .111-.019.231-.057.39-.26 1.062-.545 2.278-.586 2.44-.041.164-.106.272-.098.391-.008.27.21.489.488.489.098 0 .184-.04.293-.098l3.223-1.855c.204-.124.433-.188.588-.188.154 0 .412.048.584.09 1.494.382 3.107.62 4.785.586.263.035.53.028.781 0a9.98 9.98 0 0 1-.488-2.93c.012-6.171 5.99-11.143 13.379-11.133.253-.01.517-.002.781 0-1.103-5.805-7.156-10.254-14.453-10.254-8.093 0-14.648 5.452-14.648 12.207zm9.667-1.953a1.953 1.953 0 1 1 0-3.905 1.953 1.953 0 0 1 0 3.905m18.653.977c6.741 0 12.207 4.542 12.207 10.156 0 3.047-1.645 5.8-4.2 7.617-.225.19-.33.406-.33.608 0 .201.014.262.038.369.169.752.496 1.943.525 2.04.028.097.065.188.06.304a.393.393 0 0 1-.39.39c-.1 0-.172-.032-.293-.097l-2.637-1.563c-.185-.098-.399-.218-.644-.17-.246.048-.238.047-.332.072a15.154 15.154 0 0 1-4.004.586C26.266 39.921 20.8 35.38 20.8 29.785c0-5.614 5.465-10.156 12.207-10.156zm-4.15 5.273c-.814 0-1.514.7-1.514 1.515 0 .911.7 1.61 1.515 1.61.91 0 1.61-.699 1.61-1.61 0-.815-.7-1.515-1.61-1.515zm8.106 0c-.815 0-1.515.7-1.515 1.515 0 .911.7 1.61 1.515 1.61.911 0 1.61-.699 1.61-1.61 0-.815-.699-1.515-1.61-1.515zM24.121 14.746a1.953 1.953 0 1 1 0 3.907 1.953 1.953 0 0 1 0-3.907z" /><path fill="none" d="M0 0h50v50H0z"/></g></svg>